PathFileType	4	(X/Y/Z)	pose_F01_0-96.trc
DataRate	CameraRate	NumFrames	NumMarkers	Units	OrigDataRate	OrigDataStartFrame	OrigNumFrames
30	30	15	21	m	30	32	96
Frame#	Time	CHip			RHip			RKnee			RAnkle			RBigToe			RSmallToe			RHeel			LHip			LKnee			LAnkle			LBigToe			LSmallToe			LHeel			Neck			Nose			RShoulder			RElbow			RWrist			LShoulder			LElbow			LWrist			
		X1	Y1	Z1	X2	Y2	Z2	X3	Y3	Z3	X4	Y4	Z4	X5	Y5	Z5	X6	Y6	Z6	X7	Y7	Z7	X8	Y8	Z8	X9	Y9	Z9	X10	Y10	Z10	X11	Y11	Z11	X12	Y12	Z12	X13	Y13	Z13	X14	Y14	Z14	X15	Y15	Z15	X16	Y16	Z16	X17	Y17	Z17	X18	Y18	Z18	X19	Y19	Z19	X20	Y20	Z20	X21	Y21	Z21	
32	1.0666666666666667	-0.2605970711219355	1.8383610681945834	-0.6472089105256192	-0.2749502714807933	1.8386171704695191	-0.5818091405900615																-0.24455696621085765	1.840626718709214	-0.7091057367835913	-0.2424271808564925	1.708938551369244	-0.7095881096842166													-0.25470863547913836	1.9948474261915596	-0.6683245088068448	-0.23409081578660068	2.0413196959113256	-0.6380257506719893	-0.2754813151650354	1.9886530826421487	-0.5797658899906656	-0.29091030246886335	1.9221680958456466	-0.5182172588993571	-0.2708378883110777	1.8991809354093427	-0.4676302097935054	-0.23144988774576108	2.0009312071928536	-0.7560068725380897	-0.19533546226397797	1.9426783171925164	-0.7797362622315236	-0.20874023670671185	1.9981308474642887	-0.7051218147539623
33	1.1	-0.25743254010110245	1.844295932410364	-0.6637828604428371	-0.2748096217198158	1.8410199555213376	-0.5996042762446031																-0.24394068832761662	1.8456420902168897	-0.7266940465521338	-0.24602766675504298	1.7107812170050407	-0.7224940872870245													-0.2532936615952113	1.9961748506586245	-0.682330006770061	-0.23235712276513912	2.039244813518995	-0.65969739956321	-0.2744423463047586	1.990768610495259	-0.5942381475459643	-0.2935383718355944	1.9216707988671056	-0.5251728887722686	-0.26325726074013966	1.8981165271292564	-0.4940306055615108	-0.23050128339126494	2.0024366829326308	-0.7729683014940089	-0.193424647891013	1.9516316782887229	-0.7862857585567914	-0.2041154600390277	1.9962126431526175	-0.7186601321113911
34	1.1333333333333333	-0.25618563775703257	1.8461545455094244	-0.6814865038129921	-0.26602846492352056	1.8426855410679455	-0.6173446321591788																-0.23716805729822998	1.8489226159582077	-0.7455097971918597	-0.242383784658575	1.711222591964566	-0.7304461760631522													-0.2514470709371808	1.9981078506143386	-0.6959536908278624	-0.23200432935132617	2.039356098683795	-0.6681395884153892	-0.27296242372245694	1.9927985956772103	-0.6079772688860791	-0.2824854449671363	1.929221241590571	-0.5450968942776798	-0.26294975457489017	1.903128661657164	-0.5033521404842923	-0.22753941731657884	2.003685056285244	-0.7836246386961139	-0.19263470237893768	1.9559689091465167	-0.8060159804813948	-0.21174041844690766	1.9964600128469783	-0.7259351389509708
35	1.1666666666666667	-0.25031460255908683	1.846880026624361	-0.6914469107672809	-0.2653193296389377	1.8467069673376446	-0.6261609482994754																-0.2354750251931511	1.850842040822741	-0.7511759795937603	-0.24278977397963541	1.714622688707028	-0.742543741147153													-0.24982331615931477	1.999293834906701	-0.7100097342570368	-0.22955243391382238	2.037646827822764	-0.6783786905616597	-0.27192096297487844	1.9938441455325673	-0.6225957493231645	-0.2845753744308475	1.9320958981477594	-0.560559761772762	-0.2628343622048291	1.9068419406909862	-0.5125939314970175	-0.2244357010968847	2.0057504824314822	-0.794225161577791	-0.19110940796008932	1.9589882466602504	-0.8229869636560395	-0.21390406109350152	1.9990359090694918	-0.7437902206452052
36	1.2	-0.24857954037018049	1.848891277215265	-0.6971737000771311	-0.26599059332812003	1.8472587834555283	-0.6296823784991015																-0.2339180972849292	1.851741617432674	-0.7566873177346817	-0.24259994583699654	1.7145469781827416	-0.7453889345495829													-0.24951974572402466	1.9993928796813454	-0.7183091981097557	-0.23230162594545387	2.0382201642405646	-0.6881982713824957	-0.27164861273187346	1.9953880055953552	-0.6309652396156898	-0.28716578809016546	1.928961166470419	-0.5585665442208873	-0.2665154105102901	1.9133259743468796	-0.5091487410787944	-0.226091025824022	2.0082060953377425	-0.8004785140231379	-0.1936839935325899	1.960526703828562	-0.8328439595039304	-0.21423335468265015	2.0002568435802233	-0.7354645908713779
37	1.2333333333333334	-0.24866041380620457	1.848345247826384	-0.6971352007609192	-0.2659708221428018	1.8470671230635936	-0.6297219096635058																-0.23352884081078468	1.8541094487777947	-0.7570663958118399	-0.2424101176943577	1.714471267658455	-0.7482341279520128													-0.24939703056968	1.9999775828886008	-0.718495519024916	-0.23184673278026005	2.039657564665759	-0.6963161470853865	-0.2695981999331792	1.9970424514861806	-0.6335222577892523	-0.2909388514397324	1.9312179202430724	-0.5453454322436417	-0.26275414820876	1.9247874332097457	-0.5152710375344324	-0.22788220750948246	2.0047982623899214	-0.8062282204561191	-0.19282868087379806	1.959120088988325	-0.8522643079812716	-0.19405700672079454	1.993713140001748	-0.7752537678285055
38	1.2666666666666666	-0.24874128724222866	1.8477992184375032	-0.6970967014447073	-0.2659510509574836	1.8468754626716586	-0.6297614408279103																-0.2347243943771579	1.8519054267787134	-0.7597881186673446	-0.24222028955171881	1.7143955571341687	-0.7510793213544427													-0.24952340276284826	1.9995395530689941	-0.7183602166937733	-0.23196309912974622	2.0408012383788945	-0.6968360760600111	-0.273684070686729	1.9953439235305175	-0.6287269657320752	-0.2923389933721563	1.9257340025802774	-0.5224073802458873	-0.2624797295119775	1.9450841815856659	-0.4928958358687171	-0.22792220920927514	2.0030675026353184	-0.8060404940139851	-0.1919547990880375	1.9585373280234009	-0.8600693773211564	-0.19853881596230158	1.9991042953787235	-0.7617570759357783
39	1.3	-0.2511410078607168	1.8444645602206475	-0.6945537153843055	-0.2668137984727738	1.8434095635498644	-0.630839960683633																-0.2353789464719177	1.8483250790238743	-0.762799496204306	-0.2406690968294501	1.7128976767081374	-0.7504975211498863													-0.25289765531683656	2.0004756868633535	-0.7109018876273002	-0.2348674793649892	2.0409880331164425	-0.697697986608367	-0.27396196575150383	1.9945554276538247	-0.6203498344456864	-0.29226131092668034	1.9302716451194368	-0.5143317562015934	-0.2535086589879497	1.9493352419723158	-0.47669209251771566	-0.22747388351644193	2.009730128958846	-0.805970944414612	-0.19307855800908535	1.95921375694362	-0.852488432587436	-1.2074949234023646	1.866956633168967	0.2536636974192495
40	1.3333333333333333	-0.25354072847920495	1.8411299020037917	-0.6920107293239038	-0.267676545988064	1.8399436644280704	-0.6319184805393558																-0.23824350396547456	1.8447058738211533	-0.7598992256674857	-0.2391179041071814	1.711399796282106	-0.74991572094533													-0.25381608917699594	1.9985244970409084	-0.7136914224827939	-0.23488124569118404	2.041043543786716	-0.6976866802930174	-0.27490671343313233	1.9946187234332096	-0.6234575446883358	-0.29552060480313674	1.9380942730619448	-0.5172192033337402	-0.2723860112465705	1.9199846322969245	-0.45774469387874334	-0.22649848110644832	2.0037823641187047	-0.8110973960274731	-1.1273398478834196	1.8484880679076705	0.09217836626639622	-1.124856958731185	1.83825569123058	0.13392713042158239
41	1.3666666666666667	-0.2564127218817317	1.8430039898254242	-0.6929861043904144	-0.27024297159959404	1.8413423037305625	-0.6331333580852136																-0.23797614938361436	1.845994697291284	-0.7599953431572892	-0.2391179041071814	1.711399796282106	-0.74991572094533													-0.2548594219945027	1.9989678764408343	-0.7170148136200499	-0.23492660491033568	2.041024188219421	-0.6976357465671065	-0.2751017678393845	1.9940112580190532	-0.6235107181003003	-0.29744761878020626	1.9404506249161444	-0.5172823028771477	-0.29126336350519133	1.8906340226215335	-0.438797295239771	-0.22966474146603602	2.002501485382274	-0.8119389328329535	-0.20265339134016208	1.952583143299328	-0.8673875390033133	-1.0422189940600053	1.809554749292193	0.014190563423915269
42	1.4	-0.25546201520953576	1.8460425728997742	-0.698425348561348	-0.2716148709384007	1.8425978614026413	-0.636404773560662																-0.23851013787949543	1.8483389042502267	-0.7601732741492887	-0.2391179041071814	1.711399796282106	-0.74991572094533													-0.25571225200133346	1.9977754193010362	-0.7198329579059383	-0.23566504339057096	2.042426667440179	-0.7005877087986779	-0.2769423072823443	1.9942013569574526	-0.6296738828862274	-0.30099793947419695	1.9353122975453005	-0.5348075892830024	-0.29759424481687363	1.876067656763624	-0.45911490350623324	-0.23059509339896272	2.0023426749064104	-0.8148846695641858	-0.2028959352971833	1.9478293439891134	-0.8787331032032825	-1.0416575790935472	1.8083278050934761	0.0023693922695842196
43	1.4333333333333333	-0.2553924455380696	1.8465189783434648	-0.7105998551469058	-0.2698301862530557	1.844918293221264	-0.642555661462539																-0.23832902865353658	1.847986178873461	-0.7721327256268052	-0.2391179041071814	1.711399796282106	-0.74991572094533													-0.25306651420673787	1.9976401923616087	-0.7304258450007864	-0.235201561910526	2.0444972369305083	-0.7093851182054235	-0.27664358602184885	1.993102600685748	-0.6377513092060338	-0.30355169160268025	1.9319533168751089	-0.54957155946909	-0.29111392659923213	1.8809445305259334	-0.4894608994767686	-0.22675044744071415	2.0027262428739268	-0.822469870187979	-0.2035671253087572	1.9505304136962376	-0.8931745899660062	-1.0646969399095723	1.8230404635482644	0.02627963578238272
44	1.4666666666666666	-0.25414157126226966	1.8482088485851493	-0.7261238685836027	-0.26766511399271936	1.845377410520273	-0.6593359215456729																-0.2370644388327497	1.848978893431992	-0.7891898067639912	-0.2391179041071814	1.711399796282106	-0.74991572094533													-0.251237849376681	1.998520924084251	-0.7439316943199655	-0.2343241247647552	2.0469557770516693	-0.7260987255378516	-0.27219564442768934	1.9933409625777925	-0.6506551270793364	-1.502208418749438	1.8430732441178241	0.6876623457694429	-0.28085140677527143	1.8940658404342154	-0.5195285650260745	-0.22755024847102215	2.004856613720414	-0.836510515601492	-0.2011058640913683	1.9516356068362724	-0.906636431859093	-0.18411541780878365	1.9266388095977405	-0.8416910141472628
45	1.5	-0.25289069698646965	1.8498987188268337	-0.7416478820202996	-0.265500041732383	1.8458365278192816	-0.6761161816288067																-0.23579984901196277	1.8499716079905228	-0.8062468879011772	-0.2391179041071814	1.711399796282106	-0.74991572094533													-0.2485806178631057	1.9994672608557578	-0.7544339383123222	-0.23150374373183605	2.048454871379681	-0.7366812986099247	-0.26977130107742614	1.9941394850415946	-0.6611892597061326	-1.4885382507160787	1.8413570364484737	0.6667386274804973	-0.27220297342094524	1.9093778552691871	-0.5335356748021804	-0.22682750786873987	2.0056688681401207	-0.8448760377897109	-0.19569118286433881	1.9534591956054246	-0.919769167251188	-0.19597713525903396	1.9593571684026516	-0.8598615741338442
46	1.5333333333333334	-0.24910752948134948	1.8469618076902252	-0.7574085106076199	-0.2621727903348788	1.8460892269187983	-0.691718967969677																-0.233065864154541	1.852245043419678	-0.8168874835610757	-0.2391179041071814	1.711399796282106	-0.74991572094533													-0.24983266865055434	2.003421315339341	-0.7698660512461584	-0.22835122505762012	2.0485813404475155	-0.7553986158697412	-0.27329253839364637	2.0016994884005985	-0.6835890283003422	-0.299530510129708	1.9417445909559075	-0.5983133646310798	-0.26538777074186937	1.9237951136833369	-0.5763467222071614	-0.2223457232928623	2.0080766498158327	-0.8610640603681204	-0.18469340187885594	1.9605355982414752	-0.9239542766079172	-0.19923861570284968	1.9931078539101266	-0.8364388924313252
